<?xml version="1.0" encoding="UTF-8" standalone="no"?>
<svg
   width="298"
   height="49"
   viewBox="0 0 298 49"
   fill="none"
   version="1.1"
   id="svg65"
   sodipodi:docname="logo.green.svg"
   inkscape:version="1.2.2 (b0a8486541, 2022-12-01)"
   xmlns:inkscape="http://www.inkscape.org/namespaces/inkscape"
   xmlns:sodipodi="http://sodipodi.sourceforge.net/DTD/sodipodi-0.dtd"
   xmlns="http://www.w3.org/2000/svg"
   xmlns:svg="http://www.w3.org/2000/svg"
   xmlns:rdf="http://www.w3.org/1999/02/22-rdf-syntax-ns#"
   xmlns:cc="http://creativecommons.org/ns#"
   xmlns:dc="http://purl.org/dc/elements/1.1/">
  <path
     d="m 60.296705,26.552027 q 0.328205,2.666667 1.74359,3.835898 1.415385,1.148718 3.48718,1.148718 1.497435,0 2.892307,-0.492308 1.394872,-0.492308 2.68718,-1.31282 l 2.605128,3.528205 q -1.538462,1.31282 -3.733333,2.153846 -2.174359,0.841026 -4.964103,0.841026 -3.733333,0 -6.25641,-1.476924 -2.523077,-1.497435 -3.794872,-4.102564 -1.271795,-2.605128 -1.271795,-5.989743 0,-3.220513 1.230769,-5.846154 1.23077,-2.646154 3.589744,-4.205128 2.379487,-1.579487 5.805128,-1.579487 3.117949,0 5.394872,1.333333 2.297436,1.333333 3.548718,3.835897 1.271795,2.502564 1.271795,6.010257 0,0.553846 -0.04103,1.189743 -0.02051,0.635898 -0.08205,1.128205 z m 4.020513,-9.148718 q -1.74359,0 -2.810256,1.251283 -1.066667,1.251282 -1.292308,4 h 8 q -0.02051,-2.379488 -0.923077,-3.815385 -0.902564,-1.435898 -2.974359,-1.435898 z"
     style="font-size:40px;line-height:1.25;fill:#272727"
     id="path1084" />
  <path
     d="m 79.496723,35.557156 v -4.348718 h 2.871795 V 18.080233 H 79.496723 V 13.77254 h 7.815384 l 1.189744,4.902564 q 1.169231,-2.810256 2.974359,-4.184615 1.825641,-1.374359 4.451282,-1.374359 1.107692,0 1.969231,0.184615 0.861538,0.164103 1.620513,0.471795 l -1.210257,9.107693 H 94.245441 V 18.85972 q -1.846154,0.328205 -3.241026,2.010256 -1.394872,1.661539 -2.153846,4.102564 v 6.235898 h 4.307692 v 4.348718 z"
     style="font-size:40px;line-height:1.25;fill:#272727"
     id="path1081" />
  <path
     d="m 123.25059,10.285361 1.51795,4.758974 q -1.14872,0.451282 -2.68718,0.65641 -1.53847,0.205129 -3.58975,0.205129 2.05128,0.882051 3.11795,2.194871 1.08718,1.292308 1.08718,3.405129 0,2.11282 -1.1282,3.774359 -1.12821,1.641025 -3.2,2.584615 -2.0718,0.94359 -4.90257,0.94359 -1.35384,0 -2.52308,-0.246154 -0.34871,0.184615 -0.53333,0.533333 -0.18461,0.348718 -0.18461,0.717949 0,0.51282 0.41025,0.923077 0.43077,0.410256 1.98975,0.410256 h 3.56923 q 2.54359,0 4.38974,0.820513 1.86667,0.820513 2.89231,2.235897 1.02564,1.415385 1.02564,3.241026 0,3.34359 -2.93333,5.271795 -2.93334,1.928205 -8.71795,1.928205 -4.18462,0 -6.48205,-0.861538 -2.27693,-0.841026 -3.17949,-2.420513 -0.88205,-1.558975 -0.88205,-3.712821 h 5.74359 q 0,0.94359 0.36923,1.538462 0.38974,0.615384 1.45641,0.902564 1.08718,0.287179 3.13846,0.287179 2.07179,0 3.15897,-0.328205 1.08718,-0.328205 1.47693,-0.902564 0.41025,-0.553846 0.41025,-1.251282 0,-0.964102 -0.75897,-1.558974 -0.75898,-0.594872 -2.4,-0.594872 h -3.46667 q -3.5282,0 -5.1282,-1.292308 -1.6,-1.31282 -1.6,-3.05641 0,-1.210256 0.63589,-2.297436 0.65641,-1.087179 1.82565,-1.825641 -2.09231,-1.107692 -2.99488,-2.605128 -0.90256,-1.517949 -0.90256,-3.630769 0,-2.461539 1.25128,-4.225641 1.25128,-1.784616 3.44616,-2.748718 2.21538,-0.964103 5.04615,-0.964103 2.44102,0.04103 4.24615,-0.328205 1.80513,-0.389744 3.24103,-1.046154 1.4359,-0.676923 2.74872,-1.435897 z m -10.0718,7.015384 q -1.53846,0 -2.44102,0.984616 -0.90257,0.964102 -0.90257,2.666666 0,1.805129 0.92308,2.769231 0.92308,0.964103 2.42051,0.964103 3.32308,0 3.32308,-3.815385 0,-3.569231 -3.32308,-3.569231 z"
     style="font-size:40px;line-height:1.25;fill:#272727"
     id="path1078" />
  <path
     d="m 137.9583,13.054592 q 3.3641,0 5.72307,1.435897 2.35898,1.435897 3.61026,4.041026 1.25128,2.584615 1.25128,6.071794 0,5.456411 -2.78974,8.553847 -2.78975,3.097436 -7.79487,3.097436 -5.00513,0 -7.79488,-3.056411 -2.78974,-3.05641 -2.78974,-8.553846 0,-3.466667 1.25128,-6.071795 1.2718,-2.605128 3.63077,-4.061538 2.37949,-1.45641 5.70257,-1.45641 z m 0,4.779487 q -1.98975,0 -2.95385,1.641025 -0.94359,1.620513 -0.94359,5.169231 0,3.610257 0.94359,5.230769 0.9641,1.620513 2.95385,1.620513 1.98974,0 2.93333,-1.620513 0.9641,-1.620512 0.9641,-5.271795 0,-3.528205 -0.9641,-5.148717 -0.94359,-1.620513 -2.93333,-1.620513 z"
     style="font-size:40px;line-height:1.25;fill:#272727"
     id="path1075" />
  <path
     d="m 157.99934,31.680233 q 0,-1.251283 0.61538,-2.276924 0.61539,-1.046153 1.66154,-1.661538 1.04616,-0.635897 2.29744,-0.635897 1.27179,0 2.29743,0.635897 1.04616,0.615385 1.66154,1.661538 0.61539,1.025641 0.61539,2.276924 0,1.230769 -0.61539,2.276923 -0.61538,1.046153 -1.66154,1.661538 -1.02564,0.635898 -2.29743,0.635898 -1.25128,0 -2.29744,-0.635898 -1.04615,-0.615385 -1.66154,-1.661538 -0.61538,-1.046154 -0.61538,-2.276923 z"
     style="font-size:40px;line-height:1.25;fill:#272727"
     id="path1072" />
  <path
     d="m 197.36346,34.285361 q -1.27179,0.820513 -3.07692,1.394872 -1.80513,0.574359 -4.06154,0.574359 -4.26667,0 -6.33846,-2.174359 -2.0718,-2.194872 -2.0718,-5.948718 v -9.88718 h -4.57436 V 13.77254 h 4.57436 V 9.0545915 l 6.48205,-0.7794872 V 13.77254 h 7.01539 l -0.6359,4.471795 h -6.37949 v 9.88718 q 0,1.620512 0.73846,2.317948 0.73847,0.697436 2.35898,0.697436 1.14872,0 2.09231,-0.266666 0.9641,-0.28718 1.72307,-0.717949 z"
     style="font-weight:bold;font-size:40px;line-height:1.25;font-family:'FiraCode Nerd Font Mono';-inkscape-font-specification:'FiraCode Nerd Font Mono Bold';fill:#3f3f3f"
     id="path1069" />
  <path
     d="m 211.8045,13.054592 q 3.36411,0 5.72308,1.435897 2.35897,1.435897 3.61026,4.041026 1.25128,2.584615 1.25128,6.071794 0,5.456411 -2.78974,8.553847 -2.78975,3.097436 -7.79488,3.097436 -5.00512,0 -7.79487,-3.056411 -2.78974,-3.05641 -2.78974,-8.553846 0,-3.466667 1.25128,-6.071795 1.27179,-2.605128 3.63077,-4.061538 2.37949,-1.45641 5.70256,-1.45641 z m 0,4.779487 q -1.98974,0 -2.95384,1.641025 -0.94359,1.620513 -0.94359,5.169231 0,3.610257 0.94359,5.230769 0.9641,1.620513 2.95384,1.620513 1.98975,0 2.93334,-1.620513 0.9641,-1.620512 0.9641,-5.271795 0,-3.528205 -0.9641,-5.148717 -0.94359,-1.620513 -2.93334,-1.620513 z"
     style="font-weight:bold;font-size:40px;line-height:1.25;font-family:'FiraCode Nerd Font Mono';-inkscape-font-specification:'FiraCode Nerd Font Mono Bold';fill:#3f3f3f"
     id="path1066" />
  <path
     d="m 236.41991,13.054592 q 3.3641,0 5.72307,1.435897 2.35898,1.435897 3.61026,4.041026 1.25128,2.584615 1.25128,6.071794 0,5.456411 -2.78974,8.553847 -2.78975,3.097436 -7.79487,3.097436 -5.00513,0 -7.79488,-3.056411 -2.78974,-3.05641 -2.78974,-8.553846 0,-3.466667 1.25128,-6.071795 1.2718,-2.605128 3.63077,-4.061538 2.37949,-1.45641 5.70257,-1.45641 z m 0,4.779487 q -1.98975,0 -2.95385,1.641025 -0.94359,1.620513 -0.94359,5.169231 0,3.610257 0.94359,5.230769 0.9641,1.620513 2.95385,1.620513 1.98974,0 2.93333,-1.620513 0.9641,-1.620512 0.9641,-5.271795 0,-3.528205 -0.9641,-5.148717 -0.94359,-1.620513 -2.93333,-1.620513 z"
     style="font-weight:bold;font-size:40px;line-height:1.25;font-family:'FiraCode Nerd Font Mono';-inkscape-font-specification:'FiraCode Nerd Font Mono Bold';fill:#3f3f3f"
     id="path1063" />
  <path
     d="m 262.96351,5.11613 v 23.589744 q 0,1.31282 0.73846,1.887179 0.75898,0.553846 2.0718,0.553846 0.84102,0 1.62051,-0.184615 0.77949,-0.205128 1.45641,-0.471795 l 1.55898,4.328205 q -1.1077,0.574359 -2.66667,1.005128 -1.55897,0.43077 -3.63077,0.43077 -3.93846,0 -5.78461,-2.256411 -1.84616,-2.276923 -1.84616,-6.092307 V 9.5468992 h -6.42051 V 5.11613 Z"
     style="font-weight:bold;font-size:40px;line-height:1.25;font-family:'FiraCode Nerd Font Mono';-inkscape-font-specification:'FiraCode Nerd Font Mono Bold';fill:#3f3f3f"
     id="path1060" />
  <path
     d="m 284.95327,31.618694 q 1.62052,0 2.60513,-0.51282 1.00513,-0.512821 1.00513,-1.538462 0,-0.697436 -0.38974,-1.169231 -0.38975,-0.471795 -1.49744,-0.902564 -1.10769,-0.430769 -3.28205,-1.025641 -2.99487,-0.8 -4.88205,-2.297436 -1.86667,-1.497436 -1.86667,-4.389743 0,-2.912821 2.42051,-4.820513 2.44103,-1.907692 7.0359,-1.907692 2.91282,0 5.06667,0.758974 2.17436,0.738461 3.75384,1.887179 l -2.58461,3.815385 q -1.35385,-0.841026 -2.91282,-1.333333 -1.55898,-0.512821 -3.13846,-0.512821 -3.11795,0 -3.11795,1.682051 0,0.553847 0.38974,0.964103 0.41026,0.389744 1.51795,0.820513 1.10769,0.410256 3.24103,1.025641 2.11282,0.594872 3.67179,1.374359 1.57949,0.779487 2.44103,2.092307 0.86154,1.292308 0.86154,3.425642 0,2.379487 -1.41539,4 -1.41538,1.6 -3.75385,2.4 -2.33846,0.8 -5.1282,0.8 -3.15897,0 -5.57949,-0.902565 -2.42051,-0.902564 -4.12307,-2.379487 l 3.26153,-3.651282 q 1.2718,0.984616 2.8718,1.641026 1.62051,0.65641 3.5282,0.65641 z"
     style="font-weight:bold;font-size:40px;line-height:1.25;font-family:'FiraCode Nerd Font Mono';-inkscape-font-specification:'FiraCode Nerd Font Mono Bold';fill:#3f3f3f"
     id="path1057" />
  <sodipodi:namedview
     id="namedview36"
     pagecolor="#ffffff"
     bordercolor="#666666"
     borderopacity="1.0"
     inkscape:showpageshadow="2"
     inkscape:pageopacity="0.0"
     inkscape:pagecheckerboard="0"
     inkscape:deskcolor="#d1d1d1"
     showgrid="false"
     inkscape:zoom="3.087998"
     inkscape:cx="31.411937"
     inkscape:cy="18.134727"
     inkscape:window-width="3840"
     inkscape:window-height="1531"
     inkscape:window-x="0"
     inkscape:window-y="0"
     inkscape:window-maximized="1"
     inkscape:current-layer="svg65" />
  <metadata
     id="metadata69">
    <rdf:RDF>
      <cc:Work
         rdf:about="">
        <dc:format>image/svg+xml</dc:format>
        <dc:type
           rdf:resource="http://purl.org/dc/dcmitype/StillImage" />
      </cc:Work>
    </rdf:RDF>
  </metadata>
  <circle
     cx="24"
     cy="24.6565"
     r="23"
     fill="url(#paint0_linear)"
     id="circle10"
     style="fill:url(#paint0_linear)" />
  <path
     fill-rule="evenodd"
     clip-rule="evenodd"
     d="m 24,47.3765 c 12.5479,0 22.72,-10.1721 22.72,-22.72 C 46.72,12.1086 36.5479,1.93649 24,1.93649 11.4521,1.93649 1.28,12.1086 1.28,24.6565 c 0,12.5479 10.1721,22.72 22.72,22.72 z m 0,1.28 c 13.2548,0 24,-10.7452 24,-24 C 48,11.4017 37.2548,0.656494 24,0.656494 10.7452,0.656494 0,11.4017 0,24.6565 c 0,13.2548 10.7452,24 24,24 z"
     fill="white"
     id="path12"
     style="fill:#ffffff;fill-opacity:1" />
  <path
     d="m 12.8866,27.8591 c 0,-1.6072 -1.2973,-2.9102 -2.89757,-2.9102 -1.6003,0 -2.8976,1.303 -2.8976,2.9102 0,1.6073 1.2973,2.9103 2.8976,2.9103 1.60027,0 2.89757,-1.303 2.89757,-2.9103 z"
     fill="#1F5C8C"
     id="path14"
     style="fill:#1f5c28;fill-opacity:1" />
  <path
     d="m 41.3796,27.8591 c 0,-1.6072 -1.2973,-2.9102 -2.8976,-2.9102 -1.6003,0 -2.8976,1.303 -2.8976,2.9102 0,1.6073 1.2973,2.9103 2.8976,2.9103 1.6003,0 2.8976,-1.303 2.8976,-2.9103 z"
     fill="#1F5C8C"
     id="path16"
     style="fill:#1f5c28;fill-opacity:1" />
  <path
     d="m 19.6477,34.1646 c 0,-1.6072 -1.2973,-2.9102 -2.8976,-2.9102 -1.6003,0 -2.8976,1.303 -2.8976,2.9102 0,1.6073 1.2973,2.9103 2.8976,2.9103 1.6003,0 2.8976,-1.303 2.8976,-2.9103 z"
     fill="#1F5C8C"
     id="path18"
     style="fill:#1f5c28;fill-opacity:1" />
  <path
     d="m 19.6477,22.0387 c 0,-1.6073 -1.2973,-2.9103 -2.8976,-2.9103 -1.6003,0 -2.8976,1.303 -2.8976,2.9103 0,1.6072 1.2973,2.9102 2.8976,2.9102 1.6003,0 2.8976,-1.303 2.8976,-2.9102 z"
     fill="#1F5C8C"
     id="path20"
     style="fill:#1f5c28;fill-opacity:1" />
  <path
     d="M 15.7842,34.4072 H 17.716 V 22.7662 H 15.7842 Z"
     fill="#1f5c8c"
     id="path22" />
  <path
     d="m 34.136,34.1646 c 0,-1.6072 -1.2973,-2.9102 -2.8976,-2.9102 -1.6003,0 -2.8976,1.303 -2.8976,2.9102 0,1.6073 1.2973,2.9103 2.8976,2.9103 1.6003,0 2.8976,-1.303 2.8976,-2.9103 z"
     fill="#1F5C8C"
     id="path24"
     style="fill:#1f5c28;fill-opacity:1" />
  <path
     d="m 34.136,22.0387 c 0,-1.6073 -1.2973,-2.9103 -2.8976,-2.9103 -1.6003,0 -2.8976,1.303 -2.8976,2.9103 0,1.6072 1.2973,2.9102 2.8976,2.9102 1.6003,0 2.8976,-1.303 2.8976,-2.9102 z"
     fill="#1F5C8C"
     id="path26"
     style="fill:#1f5c28;fill-opacity:1" />
  <path
     d="m 30.2726,34.4072 h 1.9317 v -11.641 h -1.9317 z"
     fill="#1f5c8c"
     id="path28" />
  <path
     d="m 26.892,27.3741 c 0,-1.6073 -1.2973,-2.9102 -2.8976,-2.9102 -1.6003,0 -2.8976,1.3029 -2.8976,2.9102 0,1.6073 1.2973,2.9102 2.8976,2.9102 1.6003,0 2.8976,-1.3029 2.8976,-2.9102 z"
     fill="#1F5C8C"
     id="path30"
     style="fill:#1f5c28;fill-opacity:1" />
  <path
     d="m 26.892,15.2481 c 0,-1.6073 -1.2973,-2.9102 -2.8976,-2.9102 -1.6003,0 -2.8976,1.3029 -2.8976,2.9102 0,1.6073 1.2973,2.9103 2.8976,2.9103 1.6003,0 2.8976,-1.303 2.8976,-2.9103 z"
     fill="#1F5C8C"
     id="path32"
     style="fill:#1f5c28;fill-opacity:1" />
  <path
     d="m 23.0286,27.6166 h 1.9317 V 15.9757 h -1.9317 z"
     fill="#1f5c8c"
     id="path34" />
  <path
     d="m 12.8866,26.8591 c 0,-1.6072 -1.2973,-2.9102 -2.89757,-2.9102 -1.6003,0 -2.8976,1.303 -2.8976,2.9102 0,1.6073 1.2973,2.9103 2.8976,2.9103 1.60027,0 2.89757,-1.303 2.89757,-2.9103 z"
     fill="white"
     id="path36"
     style="fill:#ffffff;fill-opacity:1" />
  <path
     d="m 41.3796,26.8591 c 0,-1.6072 -1.2973,-2.9102 -2.8976,-2.9102 -1.6003,0 -2.8976,1.303 -2.8976,2.9102 0,1.6073 1.2973,2.9103 2.8976,2.9103 1.6003,0 2.8976,-1.303 2.8976,-2.9103 z"
     fill="white"
     id="path38"
     style="fill:#ffffff;fill-opacity:1" />
  <path
     d="m 19.6477,33.1646 c 0,-1.6072 -1.2973,-2.9102 -2.8976,-2.9102 -1.6003,0 -2.8976,1.303 -2.8976,2.9102 0,1.6073 1.2973,2.9103 2.8976,2.9103 1.6003,0 2.8976,-1.303 2.8976,-2.9103 z"
     fill="white"
     id="path40"
     style="fill:#ffffff;fill-opacity:1" />
  <path
     d="m 19.6477,21.0387 c 0,-1.6073 -1.2973,-2.9103 -2.8976,-2.9103 -1.6003,0 -2.8976,1.303 -2.8976,2.9103 0,1.6072 1.2973,2.9102 2.8976,2.9102 1.6003,0 2.8976,-1.303 2.8976,-2.9102 z"
     fill="white"
     id="path42"
     style="fill:#ffffff;fill-opacity:1" />
  <path
     d="M 15.7842,33.4072 H 17.716 V 21.7662 H 15.7842 Z"
     fill="white"
     id="path44"
     style="fill:#ffffff;fill-opacity:1" />
  <path
     d="m 34.136,33.1646 c 0,-1.6072 -1.2973,-2.9102 -2.8976,-2.9102 -1.6003,0 -2.8976,1.303 -2.8976,2.9102 0,1.6073 1.2973,2.9103 2.8976,2.9103 1.6003,0 2.8976,-1.303 2.8976,-2.9103 z"
     fill="white"
     id="path46"
     style="fill:#ffffff;fill-opacity:1" />
  <path
     d="m 34.136,21.0387 c 0,-1.6073 -1.2973,-2.9103 -2.8976,-2.9103 -1.6003,0 -2.8976,1.303 -2.8976,2.9103 0,1.6072 1.2973,2.9102 2.8976,2.9102 1.6003,0 2.8976,-1.303 2.8976,-2.9102 z"
     fill="white"
     id="path48"
     style="fill:#ffffff;fill-opacity:1" />
  <path
     d="m 30.2726,33.4072 h 1.9317 v -11.641 h -1.9317 z"
     fill="white"
     id="path50"
     style="fill:#ffffff;fill-opacity:1" />
  <path
     d="m 26.892,26.3741 c 0,-1.6073 -1.2973,-2.9102 -2.8976,-2.9102 -1.6003,0 -2.8976,1.3029 -2.8976,2.9102 0,1.6073 1.2973,2.9102 2.8976,2.9102 1.6003,0 2.8976,-1.3029 2.8976,-2.9102 z"
     fill="#ffffff"
     id="path52" />
  <path
     d="m 26.892,14.2481 c 0,-1.6073 -1.2973,-2.9102 -2.8976,-2.9102 -1.6003,0 -2.8976,1.3029 -2.8976,2.9102 0,1.6073 1.2973,2.9103 2.8976,2.9103 1.6003,0 2.8976,-1.303 2.8976,-2.9103 z"
     fill="white"
     id="path54"
     style="fill:#ffffff;fill-opacity:1" />
  <path
     d="m 23.0286,26.6166 h 1.9317 V 14.9757 h -1.9317 z"
     fill="white"
     id="path56"
     style="fill:#ffffff;fill-opacity:1" />
  <defs
     id="defs63">
    <linearGradient
       id="paint0_linear"
       x1="24"
       y1="1.65649"
       x2="24"
       y2="47.656502"
       gradientUnits="userSpaceOnUse">
      <stop
         stop-color="#50B6F5"
         id="stop58"
         offset="0"
         style="stop-color:#50b669;stop-opacity:1;" />
      <stop
         offset="1"
         stop-color="#307BF1"
         id="stop60"
         style="stop-color:#307a64;stop-opacity:1;" />
    </linearGradient>
  </defs>
</svg>
